<?xml version="1.0" encoding="UTF-8"?><svg xmlns="http://www.w3.org/2000/svg" xmlns:xlink="http://www.w3.org/1999/xlink" height="500.2" preserveAspectRatio="xMidYMid meet" version="1.0" viewBox="-0.1 -0.1 642.2 500.2" width="642.2" zoomAndPan="magnify"><g id="change1_1"><path d="M315.3,3.1C326,6.4,335.7,9.7,342.9,15c21.9,16,33.7,45.9,39.9,70.2c3.1,12.2,4.5,24.7,7.5,36.8 c3.1,12.6,7.3,24.9,11.2,37.1c5.7,18.2,12.5,36.5,23.5,51.9c3.1,4.5,5.7,9.6,9.3,13.9c9.1,10.5,19.5,19.9,30.9,27.9 c7,5.2,15.3,8.9,23.2,13.7c3.3,2,7.1,2.9,10.2,4.9c5,3,11.4,4.2,16.2,7l3.2,1c4.9,2.9,11.4,4.1,16.5,7.1l28.6,13.4 c3.9,2.3,8.5,3.2,12.2,5.4s7.3,2.8,10.7,4.9c11.4,7.1,21.7,13.2,29.2,22.1c2.8,3.3,5.5,7,8.1,10.5c0.8,1.1,1.2,2.7,2,3.9 c2.2,3.1,4.1,6.5,5.6,10c6,17.4,11.1,35.8,11.2,56.2c0,2.8-0.7,5-0.8,8c-0.6,10-5.5,26.1-11.4,34.2c-5.4,7-12,13-19.5,17.8 c-2.7,1.6-5.5,3.1-8.4,4.3c-7.5,4-15.4,7.3-23.5,10c-4.7,1.5-9.6,3.5-14.5,4.7c-25.3,6.5-53.4,8-81.7,8.2c-12.8,0-25.7-1.7-38.6-2.2 c-12.5-0.5-24.9-3.6-37.6-4.5c-4.2-0.3-8.3-1.6-12.3-1.9l-46.7-9c-4.9-0.4-9.3-2.4-13.7-3l-17-4.3c-4-0.4-8.7-2.6-12.8-3l-4.9-1.6 c-4-0.4-8.2-3.1-12.7-3.5c-6-0.6-13.4-4-19.5-6c-4.4-1.1-8.6-2.5-12.7-4.4c-2.2-1.3-5.7-1.6-7.6-2.7c-3.5-2-7.9-2.4-11-4.1 c-3.1-1.7-8.4-2.7-11.7-4.7l-6.6-2.4c-4.5-2.7-10.4-4.2-14.8-6.9l-5.9-2.4l-18.4-9.5l-20.4-12.2c-14-10.3-28.1-19.3-40.5-30.2 c-18.7-16.5-33.9-35.3-52.5-51.9c-14.3-12.7-27.6-25-38-39.6c-6.4-9.5-11.3-19.9-14.6-30.9c-1.3-4-3.2-8.1-4.3-12.2 c-3.7-14.4-6.1-29-7.3-43.8c-0.3-4,0.3-7.5,0.2-11.7c0-9.3,1.7-19.5,2.4-29.4c0.3-3.8,1.9-6.8,2.3-10.7c0.7-4.7,2-9.4,3.6-13.9 l1.5-4.5c3.5-5.9,4.9-13.2,8.4-18.7c5.2-8.7,11.1-17,17.7-24.8c7.1-8,16-14,24.1-20.1c14.6-11,32-21.2,49.4-26.6 c9.7-3,19.8-5,29.7-7.4c4.3-1,8.6-0.9,13-2c5.8-1.3,11.7-2.2,17.6-2.8c3.2-0.3,7.3,0.2,10.4-0.4l7.6-4.3c4.9-2.5,9.9-4.7,15.1-6.6 c1.4-0.5,2.8-1.7,4.2-2.2c10.9-3.7,21.9-7.8,33.1-10.7c6.2-1.6,12.5-2.7,18.7-4.2c2.5-0.4,5-0.7,7.6-0.8c9.7-1.1,19.4-1.5,29.2-1.1 L310,2C311.8,2.2,313.8,3.5,315.3,3.1" fill="#ece5e1"/></g></svg>