<?xml version="1.0" encoding="UTF-8"?><svg xmlns="http://www.w3.org/2000/svg" xmlns:xlink="http://www.w3.org/1999/xlink" height="511.4" preserveAspectRatio="xMidYMid meet" version="1.0" viewBox="-0.4 -8.8 683.6 511.4" width="683.6" zoomAndPan="magnify"><g id="change1_1"><path d="M677.7,135c5.5,84.3-51,106.3-112.5,130.6c-23.1,9.1-46.4,11.4-63.3,25.4c-19.2,15.9-31.4,41.8-45,62.9 c-23.4,36.2-62.7,83.2-98.1,108.5c-16.5,11.8-39.3,21.5-59.6,28.6c-32.9,11.6-80.3,10.9-110.4,4c-17.5-4-33.8-5-48.1-12.5 C72.2,446.9,32.6,369.8,6.2,286.1c-4.9-16.4-6.6-33.6-5.2-50.6l-1-15.7c3.1-18.8,10.3-36.7,21.1-52.4c34.7-50.6,141-47.8,205.9-73.7 c24.7-9.8,45.7-25.5,64-41.2c18.2-15.7,28.6-38.2,54.8-47.7c37.7-13.6,91.3,5,118.4,13c28.6,8.4,55.1,17.7,80.8,26.1l33.3,1.2 c16.6,4.8,43.6,20,58.2,29.4c13.2,9,24.2,20.9,32.2,34.7c4,8,3.7,18.9,8.8,25.9" fill="#9a765f"/></g></svg>