<?xml version="1.0" encoding="UTF-8"?><svg xmlns="http://www.w3.org/2000/svg" xmlns:xlink="http://www.w3.org/1999/xlink" height="281.0" preserveAspectRatio="xMidYMid meet" version="1.0" viewBox="-1.7 -3.8 207.2 281.0" width="207.2" zoomAndPan="magnify"><g id="change1_1"><path d="M84.3,274.9c-10.7,2-21.9-0.1-32.4-6.4c-20.2-12.2-30.8-36-25.9-57.8c10.3-45,16.4-84.4-12.8-110.7 C2.7,90.5-1.7,77.1,0.6,61.3C3.9,38,20.6,15.4,34.2,8.9l0.4,0.9l-0.4-0.9C60.6-3.8,69.2-0.7,83.6,4.4c7.4,2.8,15.1,5,22.9,6.4 c16.9,3.1,23.4,12.1,32.5,24.7c9.3,12.9,20.8,28.9,48.2,47.2c10.4,7,16.1,17,16.8,29.7c1.5,26.7-18.9,60.6-36.2,84.3 c-20.3,27.7-45.3,53.7-61.2,67.2C100.2,269.5,92.5,273.3,84.3,274.9z M57.2,2.7c-5.8,1.1-12.9,3.5-22.1,8 C19.1,18.4,5.1,43.7,2.6,61.5c-1.5,10.5-0.6,25.5,12,37c30,27,23.8,67,13.4,112.6c-4.8,21,5.5,43.8,24.9,55.6 c17.3,10.5,36.8,8.9,52.3-4.3c26.9-22.9,99.6-100.9,96.8-149.9c-0.7-12.1-6.1-21.5-15.9-28.1c-27.7-18.5-39.8-35.4-48.7-47.7 c-9.1-12.6-15.1-21-31.2-23.9c-7.9-1.5-15.7-3.6-23.2-6.5C74.1,3.2,67.5,0.8,57.2,2.7z" fill="#231F20"/></g></svg>