<?xml version="1.0" encoding="UTF-8"?><svg xmlns="http://www.w3.org/2000/svg" xmlns:xlink="http://www.w3.org/1999/xlink" height="769.4" preserveAspectRatio="xMidYMid meet" version="1.0" viewBox="-17.7 -1.3 521.3 769.4" width="521.3" zoomAndPan="magnify"><g id="change1_1"><path d="M424.1,10.7c79.5,52.7,60.5,118.5,40.4,190.3c-7.8,27-21.5,49.5-20.5,74.2c1.1,28.2,16,56.8,25.6,83.3 c16.5,45.8,31.8,113.2,30.4,162.4c-0.7,22.8-7.8,50-15,73.1c-12.1,37.4-45.1,79.6-72,101.9c-15.5,13-27.6,26.9-44.3,35 c-78.7,37.2-175,20-268.3-13.6c-16.2-5.8-38.5-19.2-49-30l-14.8-9.9c-14.8-15.6-25.9-34.3-32.6-54.8 c-21.7-65.8,53.6-159.2,74.6-235.4c8-28.8,8.4-58.5,6.8-85.7c-1.6-27.1-14.8-51.8-5.3-81.8c13.6-43.1,67-78.6,92.8-97.6 c27.2-19.9,53.6-37.4,78.7-54.7l24-29.2c15.5-11.7,47.8-25.4,66.2-32.1C358.9,0.5,377.1-1.3,395,1C404.9,2.8,414.4,10.7,424.1,10.7" fill="#dcc3ac"/></g></svg>