<?xml version="1.0" encoding="UTF-8"?><svg xmlns="http://www.w3.org/2000/svg" xmlns:xlink="http://www.w3.org/1999/xlink" height="232.6" preserveAspectRatio="xMidYMid meet" version="1.0" viewBox="-3.0 -2.5 141.4 232.6" width="141.4" zoomAndPan="magnify"><g id="change1_1"><path d="M103.3,230.1c-5.1,0-11.6-2.7-19.8-8.1l0,0c-16.5-11-13-16.4-7.8-24.6c2.5-3.9,5.7-8.8,7.4-15.6 c0.5-2.1,0.3-3.6-0.7-4.7c-3.6-4.1-16.9-2.5-29.7-0.9c-16.6,2-32.3,3.9-35-4.3c-0.6-1.9-0.5-3.6,0.3-5.1c2.5-4.3,10.6-6.1,20.1-8.2 c13.7-3,29.3-6.4,29.3-18.4c0-6.2-0.9-9.7-2.9-11.3c-3-2.5-9.3-1.3-18.8,0.5c-7.7,1.5-17.3,3.3-29.5,4.1 c-8.4,0.6-13.7-3.8-15.5-12.7c-2.8-14.3,4-39.2,17.5-63.6C32.8,30.2,51,11.6,68,6c25.4-8.5,43.2-8,54.3,1.6 c12.9,11.2,16.1,34.1,9.8,70c-7.8,44-7.2,57.5-6.5,70.7c0.4,8.8,0.8,17.1-1.3,33.8c-3.5,28-6.9,42.9-15.8,47 C106.9,229.7,105.2,230.1,103.3,230.1z M71.7,172.5c5.6,0,10,0.8,12.1,3.3c1.4,1.6,1.8,3.8,1.1,6.5c-1.8,7.1-5,12.1-7.6,16.2 c-5.1,8-7.7,12,7.2,21.8l0,0c10.6,7.1,17.9,9.3,23,6.9c8.8-4,11.7-22.1,14.6-45.4c2.1-16.5,1.7-24.8,1.2-33.4 c-0.6-13.2-1.3-26.9,6.6-71.1c6.2-34.7,3.1-57.6-9.1-68.2C110.4,0,93.3-0.4,68.6,7.8C31.4,20.3-3,92.2,2.5,120.2 c1.5,7.9,6.1,11.6,13.4,11.1c12.1-0.8,21.7-2.6,29.3-4c10.4-2,16.7-3.1,20.4,0c2.6,2.1,3.7,6,3.7,12.9c0,13.5-16.4,17.1-30.8,20.3 c-8.6,1.9-16.7,3.7-18.7,7.3c-0.6,1-0.6,2.2-0.2,3.5c2.2,6.6,18.5,4.7,32.9,2.9C59.4,173.3,66.1,172.5,71.7,172.5z" fill="#231F20"/></g></svg>